<svg width="317" height="56" viewBox="0 0 317 56" fill="none" xmlns="http://www.w3.org/2000/svg">
<rect width="56" height="56" rx="16" fill="url(#paint0_radial_498_277)"/>
<path d="M45.8406 30.4818L24.8721 42.9893L24.8721 17.9893L45.8406 30.4818Z" fill="url(#paint1_linear_498_277)"/>
<path d="M10.1594 26.0953L29.1594 13.0117L29.1594 38.0117L10.1594 26.0953Z" fill="url(#paint2_radial_498_277)"/>
<path d="M29.1511 37.9896L24.8721 42.9894L24.8721 35.3311L29.1511 37.9896Z" fill="url(#paint3_linear_498_277)"/>
<path d="M76.4886 29.0341V36.5H72.321V19.0455H76.3523V25.8125H76.4972C76.7926 25.0057 77.2756 24.375 77.946 23.9205C78.6222 23.4659 79.4489 23.2386 80.4261 23.2386C81.3466 23.2386 82.1477 23.4432 82.8295 23.8523C83.5114 24.2557 84.0398 24.8267 84.4148 25.5653C84.7955 26.304 84.983 27.1676 84.9773 28.1562V36.5H80.8097V28.9744C80.8153 28.2472 80.6335 27.679 80.2642 27.2699C79.8949 26.8608 79.375 26.6562 78.7045 26.6562C78.267 26.6562 77.8807 26.7528 77.5455 26.946C77.2159 27.1335 76.9574 27.4034 76.7699 27.7557C76.5881 28.108 76.4943 28.5341 76.4886 29.0341ZM93.6982 36.7472C92.3288 36.7472 91.147 36.4773 90.1527 35.9375C89.1641 35.392 88.4027 34.6165 87.8686 33.6108C87.3402 32.5994 87.076 31.3977 87.076 30.0057C87.076 28.6534 87.343 27.4716 87.8771 26.4602C88.4112 25.4432 89.1641 24.6534 90.1357 24.0909C91.1072 23.5227 92.2521 23.2386 93.5703 23.2386C94.5021 23.2386 95.3544 23.3835 96.1271 23.6733C96.8999 23.9631 97.5675 24.392 98.13 24.9602C98.6925 25.5284 99.13 26.2301 99.4425 27.0653C99.755 27.8949 99.9112 28.8466 99.9112 29.9205V30.9602H88.5334V28.5398H96.0334C96.0277 28.0966 95.9226 27.7017 95.718 27.3551C95.5135 27.0085 95.2322 26.7386 94.8743 26.5455C94.522 26.3466 94.1158 26.2472 93.6555 26.2472C93.1896 26.2472 92.772 26.3523 92.4027 26.5625C92.0334 26.767 91.7408 27.0483 91.5249 27.4062C91.3089 27.7585 91.1953 28.1591 91.1839 28.608V31.071C91.1839 31.6051 91.2891 32.0739 91.4993 32.4773C91.7095 32.875 92.0078 33.1847 92.3942 33.4062C92.7805 33.6278 93.2408 33.7386 93.7749 33.7386C94.1442 33.7386 94.4794 33.6875 94.7805 33.5852C95.0817 33.483 95.3402 33.3324 95.5561 33.1335C95.772 32.9347 95.9339 32.6903 96.0419 32.4006L99.8686 32.5114C99.7095 33.3693 99.3601 34.1165 98.8203 34.7528C98.2862 35.3835 97.5845 35.875 96.7152 36.2273C95.8459 36.5739 94.8402 36.7472 93.6982 36.7472ZM105.398 23.4091L107.554 27.7216L109.787 23.4091H113.989L110.332 29.9545L114.125 36.5H109.957L107.554 32.1534L105.21 36.5H100.983L104.784 29.9545L101.17 23.4091H105.398ZM123.73 27.8324V31.0455H115.651V27.8324H123.73ZM126.673 36.5V23.4091H130.721V25.7955H130.857C131.096 24.9318 131.485 24.2898 132.025 23.8693C132.565 23.4432 133.192 23.2301 133.908 23.2301C134.102 23.2301 134.3 23.2443 134.505 23.2727C134.71 23.2955 134.9 23.3324 135.076 23.3835V27.0057C134.877 26.9375 134.616 26.8835 134.292 26.8438C133.974 26.804 133.69 26.7841 133.44 26.7841C132.945 26.7841 132.499 26.8949 132.102 27.1165C131.71 27.3324 131.4 27.6364 131.173 28.0284C130.951 28.4148 130.84 28.8693 130.84 29.392V36.5H126.673ZM139.972 36.7216C139.137 36.7216 138.396 36.5824 137.748 36.304C137.106 36.0199 136.597 35.5937 136.222 35.0256C135.853 34.4517 135.668 33.733 135.668 32.8693C135.668 32.142 135.796 31.5284 136.052 31.0284C136.308 30.5284 136.66 30.1222 137.109 29.8097C137.558 29.4972 138.075 29.2614 138.66 29.1023C139.245 28.9375 139.87 28.8267 140.535 28.7699C141.279 28.7017 141.879 28.6307 142.333 28.5568C142.788 28.4773 143.117 28.3665 143.322 28.2244C143.532 28.0767 143.637 27.8693 143.637 27.6023V27.5597C143.637 27.1222 143.487 26.7841 143.185 26.5455C142.884 26.3068 142.478 26.1875 141.967 26.1875C141.415 26.1875 140.972 26.3068 140.637 26.5455C140.302 26.7841 140.089 27.1136 139.998 27.5341L136.154 27.3977C136.268 26.6023 136.56 25.892 137.032 25.267C137.509 24.6364 138.163 24.142 138.992 23.7841C139.827 23.4205 140.83 23.2386 142.001 23.2386C142.836 23.2386 143.606 23.3381 144.31 23.5369C145.015 23.7301 145.629 24.0142 146.151 24.3892C146.674 24.7585 147.077 25.2131 147.362 25.7528C147.651 26.2926 147.796 26.9091 147.796 27.6023V36.5H143.876V34.6761H143.773C143.54 35.1193 143.242 35.4943 142.879 35.8011C142.521 36.108 142.097 36.3381 141.609 36.4915C141.126 36.6449 140.58 36.7216 139.972 36.7216ZM141.259 33.9943C141.708 33.9943 142.112 33.9034 142.469 33.7216C142.833 33.5398 143.123 33.2898 143.339 32.9716C143.555 32.6477 143.663 32.2727 143.663 31.8466V30.6023C143.543 30.6648 143.398 30.7216 143.228 30.7727C143.063 30.8239 142.881 30.8722 142.683 30.9176C142.484 30.9631 142.279 31.0028 142.069 31.0369C141.859 31.071 141.657 31.1023 141.464 31.1307C141.072 31.1932 140.737 31.2898 140.458 31.4205C140.185 31.5511 139.975 31.7216 139.827 31.9318C139.685 32.1364 139.614 32.3807 139.614 32.6648C139.614 33.0966 139.768 33.4261 140.075 33.6534C140.387 33.8807 140.782 33.9943 141.259 33.9943ZM152.424 41.4091C151.924 41.4091 151.452 41.3693 151.009 41.2898C150.566 41.2159 150.185 41.1165 149.867 40.9915L150.788 37.9659C151.197 38.1023 151.566 38.1818 151.896 38.2045C152.231 38.2273 152.518 38.1733 152.756 38.0426C153.001 37.9176 153.188 37.6932 153.319 37.3693L153.481 36.9773L148.827 23.4091H153.191L155.603 32.75H155.739L158.185 23.4091H162.575L157.64 37.7528C157.401 38.4688 157.063 39.0994 156.626 39.6449C156.194 40.196 155.634 40.6278 154.947 40.9403C154.265 41.2528 153.424 41.4091 152.424 41.4091ZM175.602 27.4062L171.775 27.5085C171.735 27.2358 171.627 26.9943 171.451 26.7841C171.275 26.5682 171.045 26.4006 170.761 26.2812C170.482 26.1562 170.158 26.0938 169.789 26.0938C169.306 26.0938 168.894 26.1903 168.553 26.3835C168.218 26.5767 168.053 26.8381 168.059 27.1676C168.053 27.4233 168.156 27.6449 168.366 27.8324C168.582 28.0199 168.965 28.1705 169.516 28.2841L172.039 28.7614C173.346 29.0114 174.317 29.4261 174.954 30.0057C175.596 30.5852 175.92 31.3523 175.925 32.3068C175.92 33.2045 175.653 33.9858 175.124 34.6506C174.602 35.3153 173.886 35.8324 172.977 36.2017C172.067 36.5653 171.028 36.7472 169.857 36.7472C167.988 36.7472 166.513 36.3636 165.434 35.5966C164.36 34.8239 163.746 33.7898 163.593 32.4943L167.71 32.392C167.8 32.8693 168.036 33.233 168.417 33.483C168.798 33.733 169.283 33.858 169.874 33.858C170.408 33.858 170.843 33.7585 171.178 33.5597C171.513 33.3608 171.684 33.0966 171.69 32.767C171.684 32.4716 171.553 32.2358 171.298 32.0597C171.042 31.8778 170.641 31.7358 170.096 31.6335L167.812 31.1989C166.499 30.9602 165.522 30.5199 164.88 29.8778C164.238 29.2301 163.92 28.4062 163.925 27.4062C163.92 26.5312 164.153 25.7841 164.624 25.1648C165.096 24.5398 165.766 24.0625 166.636 23.733C167.505 23.4034 168.531 23.2386 169.712 23.2386C171.485 23.2386 172.883 23.6108 173.906 24.3551C174.928 25.0937 175.494 26.1108 175.602 27.4062ZM189.824 18.2273L184.199 39.125H182.358L187.983 18.2273H189.824ZM201.344 19.0455V36.5H199.231V19.0455H201.344ZM210.969 36.5H205.582V19.0455H211.207C212.901 19.0455 214.349 19.3949 215.554 20.0938C216.759 20.7869 217.682 21.7841 218.324 23.0852C218.966 24.3807 219.287 25.9318 219.287 27.7386C219.287 29.5568 218.963 31.1222 218.315 32.4347C217.668 33.7415 216.724 34.7472 215.486 35.4517C214.247 36.1506 212.741 36.5 210.969 36.5ZM207.696 34.625H210.832C212.276 34.625 213.472 34.3466 214.42 33.7898C215.369 33.233 216.077 32.4403 216.543 31.4119C217.009 30.3835 217.241 29.1591 217.241 27.7386C217.241 26.3295 217.011 25.1165 216.551 24.0994C216.091 23.0767 215.403 22.2926 214.489 21.7472C213.574 21.196 212.435 20.9205 211.071 20.9205H207.696V34.625ZM222.728 36.5H220.512L226.921 19.0455H229.103L235.512 36.5H233.296L228.08 21.8068H227.944L222.728 36.5ZM223.546 29.6818H232.478V31.5568H223.546V29.6818ZM238.231 36.5V19.0455H244.129C245.498 19.0455 246.617 19.2926 247.487 19.7869C248.362 20.2756 249.009 20.9375 249.43 21.7727C249.85 22.608 250.06 23.5398 250.06 24.5682C250.06 25.5966 249.85 26.5312 249.43 27.3722C249.015 28.2131 248.373 28.8835 247.504 29.3835C246.634 29.8778 245.521 30.125 244.163 30.125H239.935V28.25H244.094C245.032 28.25 245.785 28.0881 246.353 27.7642C246.921 27.4403 247.333 27.0028 247.589 26.4517C247.85 25.8949 247.981 25.267 247.981 24.5682C247.981 23.8693 247.85 23.2443 247.589 22.6932C247.333 22.142 246.918 21.7102 246.344 21.3977C245.771 21.0795 245.009 20.9205 244.06 20.9205H240.344V36.5H238.231ZM254.488 41.4091C254.147 41.4091 253.843 41.3807 253.576 41.3239C253.309 41.2727 253.124 41.2216 253.022 41.1705L253.533 39.3977C254.022 39.5227 254.454 39.5682 254.829 39.5341C255.204 39.5 255.536 39.3324 255.826 39.0312C256.121 38.7358 256.391 38.2557 256.636 37.5909L257.011 36.5682L252.17 23.4091H254.352L257.965 33.8409H258.102L261.715 23.4091H263.897L258.34 38.4091C258.09 39.0852 257.781 39.6449 257.411 40.0881C257.042 40.5369 256.613 40.8693 256.124 41.0852C255.641 41.3011 255.096 41.4091 254.488 41.4091ZM272.245 23.4091V25.1136H265.461V23.4091H272.245ZM267.438 20.2727H269.45V32.75C269.45 33.3182 269.532 33.7443 269.697 34.0284C269.867 34.3068 270.083 34.4943 270.344 34.5909C270.612 34.6818 270.893 34.7273 271.188 34.7273C271.41 34.7273 271.592 34.7159 271.734 34.6932C271.876 34.6648 271.989 34.642 272.075 34.625L272.484 36.4318C272.347 36.483 272.157 36.5341 271.913 36.5852C271.668 36.642 271.359 36.6705 270.984 36.6705C270.415 36.6705 269.859 36.5483 269.313 36.304C268.773 36.0597 268.325 35.6875 267.967 35.1875C267.614 34.6875 267.438 34.0568 267.438 33.2955V20.2727ZM277.563 28.625V36.5H275.552V19.0455H277.563V25.4545H277.734C278.04 24.7784 278.501 24.2415 279.114 23.8438C279.734 23.4403 280.558 23.2386 281.586 23.2386C282.478 23.2386 283.259 23.4176 283.93 23.7756C284.6 24.1278 285.12 24.6705 285.489 25.4034C285.864 26.1307 286.052 27.0568 286.052 28.1818V36.5H284.04V28.3182C284.04 27.2784 283.771 26.4744 283.231 25.9062C282.697 25.3324 281.955 25.0455 281.006 25.0455C280.347 25.0455 279.756 25.1847 279.234 25.4631C278.717 25.7415 278.308 26.1477 278.006 26.6818C277.711 27.2159 277.563 27.8636 277.563 28.625ZM295.05 36.7727C293.868 36.7727 292.831 36.4915 291.939 35.929C291.053 35.3665 290.359 34.5795 289.859 33.5682C289.365 32.5568 289.118 31.375 289.118 30.0227C289.118 28.6591 289.365 27.4687 289.859 26.4517C290.359 25.4347 291.053 24.6449 291.939 24.0824C292.831 23.5199 293.868 23.2386 295.05 23.2386C296.232 23.2386 297.266 23.5199 298.152 24.0824C299.044 24.6449 299.737 25.4347 300.232 26.4517C300.732 27.4687 300.982 28.6591 300.982 30.0227C300.982 31.375 300.732 32.5568 300.232 33.5682C299.737 34.5795 299.044 35.3665 298.152 35.929C297.266 36.4915 296.232 36.7727 295.05 36.7727ZM295.05 34.9659C295.947 34.9659 296.686 34.7358 297.266 34.2756C297.845 33.8153 298.274 33.2102 298.553 32.4602C298.831 31.7102 298.97 30.8977 298.97 30.0227C298.97 29.1477 298.831 28.3324 298.553 27.5767C298.274 26.821 297.845 26.2102 297.266 25.7443C296.686 25.2784 295.947 25.0455 295.05 25.0455C294.152 25.0455 293.413 25.2784 292.834 25.7443C292.254 26.2102 291.825 26.821 291.547 27.5767C291.268 28.3324 291.129 29.1477 291.129 30.0227C291.129 30.8977 291.268 31.7102 291.547 32.4602C291.825 33.2102 292.254 33.8153 292.834 34.2756C293.413 34.7358 294.152 34.9659 295.05 34.9659ZM306.063 28.625V36.5H304.052V23.4091H305.995V25.4545H306.165C306.472 24.7898 306.938 24.2557 307.563 23.8523C308.188 23.4432 308.995 23.2386 309.984 23.2386C310.87 23.2386 311.646 23.4205 312.31 23.7841C312.975 24.142 313.492 24.6875 313.862 25.4205C314.231 26.1477 314.415 27.0682 314.415 28.1818V36.5H312.404V28.3182C312.404 27.2898 312.137 26.4886 311.603 25.9148C311.069 25.3352 310.336 25.0455 309.404 25.0455C308.762 25.0455 308.188 25.1847 307.683 25.4631C307.183 25.7415 306.788 26.1477 306.498 26.6818C306.208 27.2159 306.063 27.8636 306.063 28.625Z" fill="#222222"/>
<defs>
<radialGradient id="paint0_radial_498_277" cx="0" cy="0" r="1" gradientUnits="userSpaceOnUse" gradientTransform="translate(7.60412 5.88192) rotate(47.4896) scale(59.6936)">
<stop stop-color="#3C3C3C"/>
<stop offset="1" stop-color="#191919"/>
</radialGradient>
<linearGradient id="paint1_linear_498_277" x1="36.7358" y1="29.8064" x2="30.4879" y2="29.5297" gradientUnits="userSpaceOnUse">
<stop stop-color="white"/>
<stop offset="1" stop-color="#B8B9BA"/>
</linearGradient>
<radialGradient id="paint2_radial_498_277" cx="0" cy="0" r="1" gradientUnits="userSpaceOnUse" gradientTransform="translate(29.1594 29.3527) rotate(-141.41) scale(14.2151 43.0869)">
<stop stop-color="white"/>
<stop offset="1" stop-color="#E0E4E8"/>
</radialGradient>
<linearGradient id="paint3_linear_498_277" x1="26.5047" y1="39.1602" x2="26.5197" y2="37.0288" gradientUnits="userSpaceOnUse">
<stop stop-color="white"/>
<stop offset="1" stop-color="#BCBEC1"/>
</linearGradient>
</defs>
</svg>
