P3
2 3
255
50 50 100 50 50 200
100 50 50 200 50 50
255 100 50 200 100 100
