P3
2 3
255
100 100 50 50 100 100
50 100 100 100 100 50
100 100 50 50 100 100
