P3
3 3
255
255 100 100 255 50 50 255 25 25
100 100 255 50 50 255 25 25 255
255 255 150 155 155 100 100 100 50
