P3
3 3
255
255 255 255 200 255 200 100 255 100
200 200 200 100 200 100 50 200 50
100 100 100 50 100 50 25 100 25
